<svg xmlns="http://www.w3.org/2000/svg" xmlns:xlink="http://www.w3.org/1999/xlink" width="1920" zoomAndPan="magnify" viewBox="0 0 1440 809.999993" height="1080" preserveAspectRatio="xMidYMid meet" version="1.0"><defs><clipPath id="eac7be97c6"><path d="M 772.660156 341.546875 L 834.855469 341.546875 L 834.855469 416.566406 L 772.660156 416.566406 Z M 772.660156 341.546875 " clip-rule="nonzero"/></clipPath><clipPath id="b77eee702a"><path d="M 781.480469 374.136719 C 787.730469 375.128906 804.621094 375.25 809.066406 374.230469 C 811.3125 373.710938 813.644531 373 815.625 371.847656 C 819.894531 369.359375 821.738281 365.316406 821.339844 360.484375 C 820.949219 355.816406 818.339844 352.457031 813.925781 350.929688 C 811.339844 350.046875 808.542969 349.511719 805.8125 349.429688 C 798.988281 349.230469 792.148438 349.324219 785.308594 349.390625 C 784.089844 349.402344 782.886719 349.804688 781.335938 350.085938 C 781.226562 358.171875 781.066406 366.011719 781.46875 374.136719 M 782.03125 408.800781 C 792 408.679688 801.597656 409.164062 811.179688 408.453125 C 813.667969 408.265625 816.210938 407.371094 818.5 406.296875 C 823.453125 403.996094 825.875 399.96875 825.527344 394.441406 C 825.207031 389.316406 822.101562 386.34375 817.671875 384.46875 C 814.257812 383.023438 810.632812 382.675781 806.976562 382.648438 C 799.695312 382.597656 792.429688 382.597656 785.148438 382.664062 C 783.957031 382.675781 782.753906 383.144531 781.667969 383.386719 C 780.960938 390.667969 781.082031 403.113281 782.042969 408.800781 M 819.652344 377.617188 C 821.808594 378.742188 823.464844 379.609375 825.140625 380.480469 C 838.417969 387.332031 836.824219 405.121094 826.089844 411.691406 C 821.03125 414.796875 815.515625 416.324219 809.65625 416.390625 C 799.402344 416.523438 789.136719 416.46875 778.886719 416.496094 C 778.242188 416.496094 777.601562 416.496094 776.972656 416.417969 C 774.386719 416.09375 773.078125 414.878906 772.796875 412.347656 C 772.621094 410.875 772.675781 409.363281 772.675781 407.863281 C 772.660156 388.632812 772.660156 369.398438 772.675781 350.167969 C 772.675781 348.667969 772.621094 347.167969 772.78125 345.683594 C 773.035156 343.128906 774.269531 341.988281 776.90625 341.601562 C 777.117188 341.574219 777.332031 341.546875 777.546875 341.546875 C 788.65625 341.640625 799.765625 341.613281 810.871094 341.882812 C 814.96875 341.976562 818.78125 343.542969 822.300781 345.710938 C 833.089844 352.402344 832.03125 367.03125 824.871094 373.441406 C 824.082031 374.152344 823.210938 374.78125 822.371094 375.4375 C 821.59375 376.050781 820.832031 376.652344 819.640625 377.589844 " clip-rule="nonzero"/></clipPath><clipPath id="84b89c25da"><path d="M 0.660156 0.546875 L 62.71875 0.546875 L 62.71875 75.566406 L 0.660156 75.566406 Z M 0.660156 0.546875 " clip-rule="nonzero"/></clipPath><clipPath id="5fef0ce6c4"><path d="M 9.480469 33.136719 C 15.730469 34.128906 32.621094 34.25 37.066406 33.230469 C 39.3125 32.710938 41.644531 32 43.625 30.847656 C 47.894531 28.359375 49.738281 24.316406 49.339844 19.484375 C 48.949219 14.816406 46.339844 11.457031 41.925781 9.929688 C 39.339844 9.046875 36.542969 8.511719 33.8125 8.429688 C 26.988281 8.230469 20.148438 8.324219 13.308594 8.390625 C 12.089844 8.402344 10.886719 8.804688 9.335938 9.085938 C 9.226562 17.171875 9.066406 25.011719 9.46875 33.136719 M 10.03125 67.800781 C 20 67.679688 29.597656 68.164062 39.179688 67.453125 C 41.667969 67.265625 44.210938 66.371094 46.5 65.296875 C 51.453125 62.996094 53.875 58.96875 53.527344 53.441406 C 53.207031 48.316406 50.101562 45.34375 45.671875 43.46875 C 42.257812 42.023438 38.632812 41.675781 34.976562 41.648438 C 27.695312 41.597656 20.429688 41.597656 13.148438 41.664062 C 11.957031 41.675781 10.753906 42.144531 9.667969 42.386719 C 8.960938 49.667969 9.082031 62.113281 10.042969 67.800781 M 47.652344 36.617188 C 49.808594 37.742188 51.464844 38.609375 53.140625 39.480469 C 66.417969 46.332031 64.824219 64.121094 54.089844 70.691406 C 49.03125 73.796875 43.515625 75.324219 37.65625 75.390625 C 27.402344 75.523438 17.136719 75.46875 6.886719 75.496094 C 6.242188 75.496094 5.601562 75.496094 4.972656 75.417969 C 2.386719 75.09375 1.078125 73.878906 0.796875 71.347656 C 0.621094 69.875 0.675781 68.363281 0.675781 66.863281 C 0.660156 47.632812 0.660156 28.398438 0.675781 9.167969 C 0.675781 7.667969 0.621094 6.167969 0.78125 4.683594 C 1.035156 2.128906 2.269531 0.988281 4.90625 0.601562 C 5.117188 0.574219 5.332031 0.546875 5.546875 0.546875 C 16.65625 0.640625 27.765625 0.613281 38.871094 0.882812 C 42.96875 0.976562 46.78125 2.542969 50.300781 4.710938 C 61.089844 11.402344 60.03125 26.03125 52.871094 32.441406 C 52.082031 33.152344 51.210938 33.78125 50.371094 34.4375 C 49.59375 35.050781 48.832031 35.652344 47.640625 36.589844 " clip-rule="nonzero"/></clipPath><clipPath id="3975cbd632"><rect x="0" width="63" y="0" height="76"/></clipPath><clipPath id="68ec02ceaa"><path d="M 773.265625 192.421875 L 881.90625 192.421875 L 881.90625 322.621094 L 773.265625 322.621094 Z M 773.265625 192.421875 " clip-rule="nonzero"/></clipPath><clipPath id="8262f5b790"><path d="M 833.257812 263.59375 L 833.257812 256.230469 C 834.597656 255.988281 835.800781 255.589844 837.019531 255.589844 C 850.511719 255.535156 863.988281 255.546875 877.480469 255.574219 C 878.710938 255.574219 879.941406 255.855469 881.414062 256.03125 C 881.574219 257.300781 881.828125 258.320312 881.828125 259.335938 C 881.855469 272.828125 881.800781 286.304688 881.894531 299.792969 C 881.910156 302.363281 881.214844 304.277344 879.152344 305.882812 C 861.511719 319.75 841.8125 325.613281 819.621094 320.660156 C 802.046875 316.75 788.917969 306.488281 781.277344 290.226562 C 770.90625 268.167969 771.066406 245.816406 782.363281 224.082031 C 790.015625 209.359375 802.023438 199.136719 818.230469 195.082031 C 839.976562 189.648438 859.730469 194.011719 877.183594 209.148438 C 876.261719 210.550781 875.539062 211.785156 874.667969 212.921875 C 873.90625 213.925781 872.980469 214.820312 872.125 215.757812 C 869.824219 215.730469 868.660156 213.992188 867.199219 212.90625 C 860.226562 207.753906 852.734375 203.808594 844.058594 202.375 C 815.433594 197.636719 797.03125 212.601562 788.691406 231.859375 C 781.171875 249.230469 781.289062 267.019531 788.757812 284.28125 C 796.695312 302.644531 811.351562 312.226562 831.277344 313.578125 C 844.339844 314.464844 856.238281 310.753906 867.214844 303.863281 C 868.484375 303.074219 869.675781 302.164062 870.867188 301.253906 C 871.535156 300.746094 872.113281 300.117188 872.875 299.394531 L 872.875 264.433594 C 871.082031 264.234375 869.449219 263.914062 867.800781 263.898438 C 858.59375 263.847656 849.386719 263.886719 840.191406 263.859375 C 838.089844 263.859375 835.988281 263.699219 833.273438 263.59375 " clip-rule="nonzero"/></clipPath><clipPath id="6aeacde525"><path d="M 0.519531 0.71875 L 108.90625 0.71875 L 108.90625 130.621094 L 0.519531 130.621094 Z M 0.519531 0.71875 " clip-rule="nonzero"/></clipPath><clipPath id="98ea946c71"><path d="M 60.257812 71.59375 L 60.257812 64.230469 C 61.597656 63.988281 62.800781 63.589844 64.019531 63.589844 C 77.511719 63.535156 90.988281 63.546875 104.480469 63.574219 C 105.710938 63.574219 106.941406 63.855469 108.414062 64.03125 C 108.574219 65.300781 108.828125 66.320312 108.828125 67.335938 C 108.855469 80.828125 108.800781 94.304688 108.894531 107.792969 C 108.910156 110.363281 108.214844 112.277344 106.152344 113.882812 C 88.511719 127.75 68.8125 133.613281 46.621094 128.660156 C 29.046875 124.75 15.917969 114.488281 8.277344 98.226562 C -2.09375 76.167969 -1.933594 53.816406 9.363281 32.082031 C 17.015625 17.359375 29.023438 7.136719 45.230469 3.082031 C 66.976562 -2.351562 86.730469 2.011719 104.183594 17.148438 C 103.261719 18.550781 102.539062 19.785156 101.667969 20.921875 C 100.90625 21.925781 99.980469 22.820312 99.125 23.757812 C 96.824219 23.730469 95.660156 21.992188 94.199219 20.90625 C 87.226562 15.753906 79.734375 11.808594 71.058594 10.375 C 42.433594 5.636719 24.03125 20.601562 15.691406 39.859375 C 8.171875 57.230469 8.289062 75.019531 15.757812 92.28125 C 23.695312 110.644531 38.351562 120.226562 58.277344 121.578125 C 71.339844 122.464844 83.238281 118.753906 94.214844 111.863281 C 95.484375 111.074219 96.675781 110.164062 97.867188 109.253906 C 98.535156 108.746094 99.113281 108.117188 99.875 107.394531 L 99.875 72.433594 C 98.082031 72.234375 96.449219 71.914062 94.800781 71.898438 C 85.59375 71.847656 76.386719 71.886719 67.191406 71.859375 C 65.089844 71.859375 62.988281 71.699219 60.273438 71.59375 " clip-rule="nonzero"/></clipPath><clipPath id="a31a71ac5f"><rect x="0" width="109" y="0" height="131"/></clipPath><clipPath id="4dcb7ea26f"><path d="M 857.207031 340.53125 L 931.789062 340.53125 L 931.789062 417 L 857.207031 417 Z M 857.207031 340.53125 " clip-rule="nonzero"/></clipPath><clipPath id="817942b853"><path d="M 877.425781 387.949219 C 878.871094 388.40625 879.796875 388.953125 880.734375 388.964844 C 890.101562 389.019531 899.484375 389.007812 908.851562 388.953125 C 909.601562 388.953125 910.335938 388.484375 911.074219 388.242188 C 908.398438 380.054688 896.859375 355.613281 893.902344 352.082031 C 888.414062 364.03125 883.007812 375.796875 877.414062 387.949219 M 915.382812 397.425781 C 910.269531 396.769531 881.695312 396.636719 873.625 397.25 C 872.78125 398.84375 871.753906 400.652344 870.855469 402.523438 C 869.023438 406.390625 867.269531 410.300781 865.449219 414.167969 C 864.660156 415.855469 863.292969 416.777344 861.394531 416.832031 C 859.039062 416.886719 857.125 415.050781 857.550781 412.777344 C 857.898438 410.914062 858.621094 409.097656 859.425781 407.371094 C 865.367188 394.546875 871.363281 381.765625 877.347656 368.972656 C 880.613281 362 883.878906 355.027344 887.15625 348.050781 C 887.800781 346.699219 888.359375 345.296875 889.125 344.011719 C 891.882812 339.445312 897.289062 339.367188 900.03125 343.851562 C 900.699219 344.933594 901.144531 346.164062 901.691406 347.328125 C 911.046875 367.273438 920.402344 387.226562 929.742188 407.195312 C 930.371094 408.546875 931.027344 409.914062 931.511719 411.316406 C 932.21875 413.40625 931.496094 415.414062 929.863281 416.324219 C 927.921875 417.394531 925.488281 416.925781 924.148438 415.050781 C 923.414062 414.019531 922.851562 412.84375 922.300781 411.691406 C 920.65625 408.210938 919.078125 404.691406 917.429688 401.210938 C 916.800781 399.875 916.039062 398.601562 915.394531 397.425781 " clip-rule="nonzero"/></clipPath><clipPath id="c18209d0da"><path d="M 0.28125 0.53125 L 74.789062 0.53125 L 74.789062 77 L 0.28125 77 Z M 0.28125 0.53125 " clip-rule="nonzero"/></clipPath><clipPath id="90fe110298"><path d="M 20.425781 47.949219 C 21.871094 48.40625 22.796875 48.953125 23.734375 48.964844 C 33.101562 49.019531 42.484375 49.007812 51.851562 48.953125 C 52.601562 48.953125 53.335938 48.484375 54.074219 48.242188 C 51.398438 40.054688 39.859375 15.613281 36.902344 12.082031 C 31.414062 24.03125 26.007812 35.796875 20.414062 47.949219 M 58.382812 57.425781 C 53.269531 56.769531 24.695312 56.636719 16.625 57.25 C 15.78125 58.84375 14.753906 60.652344 13.855469 62.523438 C 12.023438 66.390625 10.269531 70.300781 8.449219 74.167969 C 7.660156 75.855469 6.292969 76.777344 4.394531 76.832031 C 2.039062 76.886719 0.125 75.050781 0.550781 72.777344 C 0.898438 70.914062 1.621094 69.097656 2.425781 67.371094 C 8.367188 54.546875 14.363281 41.765625 20.347656 28.972656 C 23.613281 22 26.878906 15.027344 30.15625 8.050781 C 30.800781 6.699219 31.359375 5.296875 32.125 4.011719 C 34.882812 -0.554688 40.289062 -0.632812 43.03125 3.851562 C 43.699219 4.933594 44.144531 6.164062 44.691406 7.328125 C 54.046875 27.273438 63.402344 47.226562 72.742188 67.195312 C 73.371094 68.546875 74.027344 69.914062 74.511719 71.316406 C 75.21875 73.40625 74.496094 75.414062 72.863281 76.324219 C 70.921875 77.394531 68.488281 76.925781 67.148438 75.050781 C 66.414062 74.019531 65.851562 72.84375 65.300781 71.691406 C 63.65625 68.210938 62.078125 64.691406 60.429688 61.210938 C 59.800781 59.875 59.039062 58.601562 58.394531 57.425781 " clip-rule="nonzero"/></clipPath><clipPath id="ccaaff7322"><rect x="0" width="75" y="0" height="77"/></clipPath><clipPath id="0defa07068"><path d="M 913.699219 195 L 1011.132812 195 L 1011.132812 320.398438 L 913.699219 320.398438 Z M 913.699219 195 " clip-rule="nonzero"/></clipPath><clipPath id="ba2624bea8"><path d="M 923.667969 204.210938 C 923.453125 205.296875 923.160156 206.097656 923.160156 206.914062 C 923.132812 223.617188 923.148438 240.320312 923.1875 257.023438 C 923.1875 257.800781 923.589844 258.589844 923.761719 259.191406 C 924.484375 259.40625 924.886719 259.632812 925.273438 259.632812 C 939.410156 259.660156 953.542969 259.859375 967.660156 259.605469 C 975.304688 259.472656 982.398438 256.996094 988.5 252.21875 C 998.644531 244.28125 1001.574219 228.421875 994.949219 217.382812 C 991.472656 211.585938 986.210938 208.078125 979.949219 205.964844 C 975.035156 204.304688 969.910156 203.796875 964.757812 203.785156 C 952.765625 203.742188 940.773438 203.757812 928.78125 203.796875 C 927.121094 203.796875 925.476562 204.078125 923.65625 204.238281 M 1011.132812 319.726562 C 1007.382812 320.394531 1004.066406 320.195312 1000.371094 319.875 C 987.859375 303.011719 975.25 286.011719 962.75 269.148438 C 957.757812 268.386719 931.015625 268.238281 924.136719 268.921875 C 922.652344 270.261719 923.160156 272.09375 923.148438 273.726562 C 923.09375 286.777344 923.132812 299.839844 923.105469 312.886719 C 923.105469 314.988281 922.972656 317.105469 922.878906 319.460938 C 920.015625 320.488281 917.378906 320.222656 914.367188 319.753906 C 914.234375 317.851562 914.03125 316.195312 914.019531 314.535156 C 913.390625 263.21875 913.738281 201.441406 914.742188 195.527344 C 915.839844 195.417969 917.070312 195.191406 918.289062 195.191406 C 933.695312 195.164062 949.097656 195.175781 964.503906 195.175781 C 971.835938 195.175781 978.96875 196.222656 985.808594 199.058594 C 1001.777344 205.644531 1011.320312 221.464844 1006.246094 241.082031 C 1003.691406 251 997.171875 257.972656 987.925781 262.164062 C 983.480469 264.171875 978.703125 265.457031 973.792969 267.167969 C 973.082031 268.601562 974.554688 269.589844 975.382812 270.703125 C 985.957031 284.96875 996.570312 299.195312 1007.144531 313.476562 C 1008.496094 315.308594 1010.195312 316.984375 1011.117188 319.742188 " clip-rule="nonzero"/></clipPath><clipPath id="eb0612222d"><path d="M 0.699219 0.121094 L 98.132812 0.121094 L 98.132812 125.398438 L 0.699219 125.398438 Z M 0.699219 0.121094 " clip-rule="nonzero"/></clipPath><clipPath id="0206da898f"><path d="M 10.667969 9.210938 C 10.453125 10.296875 10.160156 11.097656 10.160156 11.914062 C 10.132812 28.617188 10.148438 45.320312 10.1875 62.023438 C 10.1875 62.800781 10.589844 63.589844 10.761719 64.191406 C 11.484375 64.40625 11.886719 64.632812 12.273438 64.632812 C 26.410156 64.660156 40.542969 64.859375 54.660156 64.605469 C 62.304688 64.472656 69.398438 61.996094 75.5 57.21875 C 85.644531 49.28125 88.574219 33.421875 81.949219 22.382812 C 78.472656 16.585938 73.210938 13.078125 66.949219 10.964844 C 62.035156 9.304688 56.910156 8.796875 51.757812 8.785156 C 39.765625 8.742188 27.773438 8.757812 15.78125 8.796875 C 14.121094 8.796875 12.476562 9.078125 10.65625 9.238281 M 98.132812 124.726562 C 94.382812 125.394531 91.066406 125.195312 87.371094 124.875 C 74.859375 108.011719 62.25 91.011719 49.75 74.148438 C 44.757812 73.386719 18.015625 73.238281 11.136719 73.921875 C 9.652344 75.261719 10.160156 77.09375 10.148438 78.726562 C 10.09375 91.777344 10.132812 104.839844 10.105469 117.886719 C 10.105469 119.988281 9.972656 122.105469 9.878906 124.460938 C 7.015625 125.488281 4.378906 125.222656 1.367188 124.753906 C 1.234375 122.851562 1.03125 121.195312 1.019531 119.535156 C 0.390625 68.21875 0.738281 6.441406 1.742188 0.527344 C 2.839844 0.417969 4.070312 0.191406 5.289062 0.191406 C 20.695312 0.164062 36.097656 0.175781 51.503906 0.175781 C 58.835938 0.175781 65.96875 1.222656 72.808594 4.058594 C 88.777344 10.644531 98.320312 26.464844 93.246094 46.082031 C 90.691406 56 84.171875 62.972656 74.925781 67.164062 C 70.480469 69.171875 65.703125 70.457031 60.792969 72.167969 C 60.082031 73.601562 61.554688 74.589844 62.382812 75.703125 C 72.957031 89.96875 83.570312 104.195312 94.144531 118.476562 C 95.496094 120.308594 97.195312 121.984375 98.117188 124.742188 " clip-rule="nonzero"/></clipPath><clipPath id="c3e6a39000"><rect x="0" width="99" y="0" height="126"/></clipPath><clipPath id="09bd2e20ed"><path d="M 951.621094 340 L 1020.515625 340 L 1020.515625 418 L 951.621094 418 Z M 951.621094 340 " clip-rule="nonzero"/></clipPath><clipPath id="feeb098cbd"><path d="M 991.664062 340.136719 C 1000.523438 340.125 1008.511719 342.722656 1015.632812 347.980469 C 1016.664062 348.746094 1017.679688 349.546875 1018.550781 350.46875 C 1019.96875 351.996094 1020.0625 354.230469 1018.925781 355.757812 C 1017.800781 357.269531 1015.578125 357.980469 1013.746094 357.09375 C 1012.234375 356.359375 1010.882812 355.277344 1009.503906 354.273438 C 1003.960938 350.257812 997.832031 348.167969 990.953125 348.167969 C 977.757812 348.167969 966.835938 355.796875 962.808594 368.390625 C 959.246094 379.511719 960.71875 390.046875 968.203125 399.226562 C 977.890625 411.113281 995.0625 413.347656 1008.191406 404.6875 C 1010.144531 403.390625 1011.886719 401.769531 1013.839844 400.457031 C 1015.847656 399.105469 1018.175781 399.589844 1019.472656 401.488281 C 1020.410156 402.839844 1020.597656 404.367188 1019.609375 405.679688 C 1018.726562 406.855469 1017.628906 407.914062 1016.464844 408.824219 C 1003.695312 418.78125 989.5625 420.46875 974.757812 414.617188 C 960.558594 409.011719 951.859375 394.90625 951.886719 379.03125 C 951.914062 360.789062 963.449219 345.800781 980.863281 341.355469 C 982.09375 341.035156 983.367188 340.742188 984.625 340.621094 C 986.964844 340.378906 989.320312 340.285156 991.664062 340.136719 " clip-rule="nonzero"/></clipPath><clipPath id="4424f6088e"><path d="M 0.839844 0.078125 L 69.480469 0.078125 L 69.480469 78 L 0.839844 78 Z M 0.839844 0.078125 " clip-rule="nonzero"/></clipPath><clipPath id="00ed4430a6"><path d="M 40.664062 0.136719 C 49.523438 0.125 57.511719 2.722656 64.632812 7.980469 C 65.664062 8.746094 66.679688 9.546875 67.550781 10.46875 C 68.96875 11.996094 69.0625 14.230469 67.925781 15.757812 C 66.800781 17.269531 64.578125 17.980469 62.746094 17.09375 C 61.234375 16.359375 59.882812 15.277344 58.503906 14.273438 C 52.960938 10.257812 46.832031 8.167969 39.953125 8.167969 C 26.757812 8.167969 15.835938 15.796875 11.808594 28.390625 C 8.246094 39.511719 9.71875 50.046875 17.203125 59.226562 C 26.890625 71.113281 44.0625 73.347656 57.191406 64.6875 C 59.144531 63.390625 60.886719 61.769531 62.839844 60.457031 C 64.847656 59.105469 67.175781 59.589844 68.472656 61.488281 C 69.410156 62.839844 69.597656 64.367188 68.609375 65.679688 C 67.726562 66.855469 66.628906 67.914062 65.464844 68.824219 C 52.695312 78.78125 38.5625 80.46875 23.757812 74.617188 C 9.558594 69.011719 0.859375 54.90625 0.886719 39.03125 C 0.914062 20.789062 12.449219 5.800781 29.863281 1.355469 C 31.09375 1.035156 32.367188 0.742188 33.625 0.621094 C 35.964844 0.378906 38.320312 0.285156 40.664062 0.136719 " clip-rule="nonzero"/></clipPath><clipPath id="7cdd1cfced"><rect x="0" width="70" y="0" height="78"/></clipPath><clipPath id="39fc5ab13b"><path d="M 1046.964844 340.726562 L 1108.710938 340.726562 L 1108.710938 416.890625 L 1046.964844 416.890625 Z M 1046.964844 340.726562 " clip-rule="nonzero"/></clipPath><clipPath id="074866ef0a"><path d="M 1099.882812 383.433594 C 1098.222656 383.167969 1097.40625 382.925781 1096.589844 382.925781 C 1083.753906 382.914062 1070.933594 382.925781 1058.097656 382.964844 C 1057.511719 382.964844 1056.921875 383.3125 1055.972656 383.621094 C 1055.863281 385.242188 1055.675781 386.902344 1055.664062 388.5625 C 1055.621094 395.398438 1055.664062 402.238281 1055.636719 409.089844 C 1055.636719 410.589844 1055.648438 412.089844 1055.4375 413.574219 C 1055.195312 415.328125 1053.722656 416.558594 1051.929688 416.785156 C 1049.882812 417.042969 1047.941406 415.984375 1047.40625 414.054688 C 1047.070312 412.851562 1046.964844 411.539062 1046.964844 410.269531 C 1046.964844 389.308594 1046.964844 368.363281 1046.976562 347.40625 C 1046.976562 346.347656 1047.042969 345.265625 1047.285156 344.234375 C 1047.753906 342.292969 1049.667969 340.886719 1051.515625 340.980469 C 1053.402344 341.074219 1055.234375 342.601562 1055.488281 344.527344 C 1055.691406 346 1055.648438 347.511719 1055.648438 349.011719 C 1055.664062 355.421875 1055.636719 361.847656 1055.664062 368.257812 C 1055.675781 370.160156 1055.796875 372.046875 1055.878906 374.078125 C 1060.683594 375.6875 1065.40625 374.707031 1070.023438 374.871094 C 1074.933594 375.042969 1079.859375 374.949219 1084.773438 374.894531 C 1089.445312 374.855469 1094.128906 375.125 1099.09375 374.65625 C 1099.375 372.957031 1099.800781 371.550781 1099.816406 370.144531 C 1099.882812 363.089844 1099.828125 356.039062 1099.882812 348.972656 C 1099.894531 347.273438 1099.976562 345.546875 1100.296875 343.886719 C 1100.617188 342.308594 1102.492188 341.023438 1104.125 340.96875 C 1105.972656 340.902344 1107.980469 342.414062 1108.246094 344.300781 C 1108.460938 345.773438 1108.460938 347.285156 1108.460938 348.769531 C 1108.476562 368.875 1108.476562 388.960938 1108.460938 409.0625 C 1108.460938 410.347656 1108.5 411.632812 1108.367188 412.90625 C 1108.101562 415.410156 1106.46875 416.878906 1104.164062 416.828125 C 1101.851562 416.773438 1100.324219 415.367188 1100.03125 412.796875 C 1099.855469 411.3125 1099.894531 409.8125 1099.894531 408.316406 C 1099.882812 402.332031 1099.882812 396.335938 1099.882812 390.355469 C 1099.882812 388.226562 1099.882812 386.113281 1099.882812 383.433594 " clip-rule="nonzero"/></clipPath><clipPath id="70282c1566"><path d="M 0.964844 0.800781 L 62.558594 0.800781 L 62.558594 76.890625 L 0.964844 76.890625 Z M 0.964844 0.800781 " clip-rule="nonzero"/></clipPath><clipPath id="521a2c01d7"><path d="M 53.882812 43.433594 C 52.222656 43.167969 51.40625 42.925781 50.589844 42.925781 C 37.753906 42.914062 24.933594 42.925781 12.097656 42.964844 C 11.511719 42.964844 10.921875 43.3125 9.972656 43.621094 C 9.863281 45.242188 9.675781 46.902344 9.664062 48.5625 C 9.621094 55.398438 9.664062 62.238281 9.636719 69.089844 C 9.636719 70.589844 9.648438 72.089844 9.4375 73.574219 C 9.195312 75.328125 7.722656 76.558594 5.929688 76.785156 C 3.882812 77.042969 1.941406 75.984375 1.40625 74.054688 C 1.070312 72.851562 0.964844 71.539062 0.964844 70.269531 C 0.964844 49.308594 0.964844 28.363281 0.976562 7.40625 C 0.976562 6.347656 1.042969 5.265625 1.285156 4.234375 C 1.753906 2.292969 3.667969 0.886719 5.515625 0.980469 C 7.402344 1.074219 9.234375 2.601562 9.488281 4.527344 C 9.691406 6 9.648438 7.511719 9.648438 9.011719 C 9.664062 15.421875 9.636719 21.847656 9.664062 28.257812 C 9.675781 30.160156 9.796875 32.046875 9.878906 34.078125 C 14.683594 35.6875 19.40625 34.707031 24.023438 34.871094 C 28.933594 35.042969 33.859375 34.949219 38.773438 34.894531 C 43.445312 34.855469 48.128906 35.125 53.09375 34.65625 C 53.375 32.957031 53.800781 31.550781 53.816406 30.144531 C 53.882812 23.089844 53.828125 16.039062 53.882812 8.972656 C 53.894531 7.273438 53.976562 5.546875 54.296875 3.886719 C 54.617188 2.308594 56.492188 1.023438 58.125 0.96875 C 59.972656 0.902344 61.980469 2.414062 62.246094 4.300781 C 62.460938 5.773438 62.460938 7.285156 62.460938 8.769531 C 62.476562 28.875 62.476562 48.960938 62.460938 69.0625 C 62.460938 70.347656 62.5 71.632812 62.367188 72.90625 C 62.101562 75.410156 60.46875 76.878906 58.164062 76.828125 C 55.851562 76.773438 54.324219 75.367188 54.03125 72.796875 C 53.855469 71.3125 53.894531 69.8125 53.894531 68.316406 C 53.882812 62.332031 53.882812 56.335938 53.882812 50.355469 C 53.882812 48.226562 53.882812 46.113281 53.882812 43.433594 " clip-rule="nonzero"/></clipPath><clipPath id="f5c05db634"><rect x="0" width="63" y="0" height="77"/></clipPath><clipPath id="6f596a8cc8"><path d="M 1036.277344 195 L 1135.113281 195 L 1135.113281 322.542969 L 1036.277344 322.542969 Z M 1036.277344 195 " clip-rule="nonzero"/></clipPath><clipPath id="4b0e0a3f56"><path d="M 1036.667969 195.636719 C 1039.703125 195.046875 1042.195312 194.953125 1045.042969 195.769531 C 1045.125 198.230469 1045.273438 200.535156 1045.273438 202.847656 C 1045.285156 223.378906 1045.207031 243.925781 1045.339844 264.453125 C 1045.378906 269.78125 1045.902344 275.121094 1046.558594 280.40625 C 1046.917969 283.339844 1047.816406 286.269531 1048.847656 289.054688 C 1053.675781 302.167969 1062.9375 310.105469 1076.765625 312.714844 C 1083.832031 314.054688 1090.832031 313.894531 1097.75 312.140625 C 1108.5625 309.410156 1116.40625 302.960938 1121.105469 292.789062 C 1124.773438 284.851562 1125.949219 276.417969 1125.976562 267.800781 C 1126.03125 250.253906 1125.988281 232.722656 1125.988281 215.175781 C 1125.988281 210.25 1125.976562 205.339844 1126.003906 200.414062 C 1126.015625 198.953125 1126.148438 197.496094 1126.242188 195.742188 C 1129.148438 194.941406 1131.757812 194.925781 1134.730469 195.757812 C 1134.863281 197.550781 1135.078125 199.210938 1135.078125 200.867188 C 1135.105469 222.683594 1135.105469 244.511719 1135.089844 266.328125 C 1135.089844 273.195312 1134.367188 279.992188 1132.628906 286.644531 C 1131.261719 291.851562 1129.203125 296.75 1126.335938 301.3125 C 1120.636719 310.386719 1112.621094 316.503906 1102.433594 319.648438 C 1092.625 322.671875 1082.613281 322.996094 1072.640625 320.667969 C 1055.257812 316.652344 1044.148438 305.675781 1039.089844 288.757812 C 1037.511719 283.5 1036.519531 277.851562 1036.453125 272.378906 C 1036.171875 247.777344 1036.320312 223.164062 1036.320312 198.566406 C 1036.320312 197.738281 1036.507812 196.921875 1036.652344 195.621094 " clip-rule="nonzero"/></clipPath><clipPath id="610cc4b172"><path d="M 0.277344 0.121094 L 99.113281 0.121094 L 99.113281 127.542969 L 0.277344 127.542969 Z M 0.277344 0.121094 " clip-rule="nonzero"/></clipPath><clipPath id="63e744d9a8"><path d="M 0.667969 0.636719 C 3.703125 0.046875 6.195312 -0.046875 9.042969 0.769531 C 9.125 3.230469 9.273438 5.535156 9.273438 7.847656 C 9.285156 28.378906 9.207031 48.925781 9.339844 69.453125 C 9.378906 74.78125 9.902344 80.121094 10.558594 85.40625 C 10.917969 88.339844 11.816406 91.269531 12.847656 94.054688 C 17.675781 107.167969 26.9375 115.105469 40.765625 117.714844 C 47.832031 119.054688 54.832031 118.894531 61.75 117.140625 C 72.5625 114.410156 80.40625 107.960938 85.105469 97.789062 C 88.773438 89.851562 89.949219 81.417969 89.976562 72.800781 C 90.03125 55.253906 89.988281 37.722656 89.988281 20.175781 C 89.988281 15.25 89.976562 10.339844 90.003906 5.414062 C 90.015625 3.953125 90.148438 2.496094 90.242188 0.742188 C 93.148438 -0.0585938 95.757812 -0.0742188 98.730469 0.757812 C 98.863281 2.550781 99.078125 4.210938 99.078125 5.867188 C 99.105469 27.683594 99.105469 49.511719 99.089844 71.328125 C 99.089844 78.195312 98.367188 84.992188 96.628906 91.644531 C 95.261719 96.851562 93.203125 101.75 90.335938 106.3125 C 84.636719 115.386719 76.621094 121.503906 66.433594 124.648438 C 56.625 127.671875 46.613281 127.996094 36.640625 125.667969 C 19.257812 121.652344 8.148438 110.675781 3.089844 93.757812 C 1.511719 88.5 0.519531 82.851562 0.453125 77.378906 C 0.171875 52.777344 0.320312 28.164062 0.320312 3.566406 C 0.320312 2.738281 0.507812 1.921875 0.652344 0.621094 " clip-rule="nonzero"/></clipPath><clipPath id="e98c6fe9cc"><rect x="0" width="100" y="0" height="128"/></clipPath><clipPath id="5999d78c52"><path d="M 1137.632812 340.234375 L 1216.082031 340.234375 L 1216.082031 418 L 1137.632812 418 Z M 1137.632812 340.234375 " clip-rule="nonzero"/></clipPath><clipPath id="1fe2438fa7"><path d="M 1176.996094 409.855469 C 1191.929688 409.789062 1206.664062 399.039062 1206.800781 379.351562 C 1206.933594 358.515625 1190.820312 348.074219 1176.96875 348.140625 C 1159.796875 348.234375 1146.746094 361.378906 1146.800781 378.925781 C 1146.855469 396.351562 1160.050781 409.882812 1176.996094 409.855469 M 1176.6875 417.777344 C 1160.398438 417.777344 1146.707031 408.929688 1140.699219 394.542969 C 1134.515625 379.753906 1137.875 362.34375 1149.117188 351.222656 C 1155.59375 344.824219 1163.421875 341.238281 1172.484375 340.445312 C 1177.835938 339.976562 1183.125 340.246094 1188.355469 341.691406 C 1206.988281 346.859375 1218.027344 364.925781 1215.714844 383.515625 C 1213.183594 403.925781 1197.191406 417.777344 1176.6875 417.777344 " clip-rule="nonzero"/></clipPath><clipPath id="eee0f86061"><path d="M 0.632812 0.234375 L 79.082031 0.234375 L 79.082031 77.839844 L 0.632812 77.839844 Z M 0.632812 0.234375 " clip-rule="nonzero"/></clipPath><clipPath id="39345580f7"><path d="M 39.996094 69.855469 C 54.929688 69.789062 69.664062 59.039062 69.800781 39.351562 C 69.933594 18.515625 53.820312 8.074219 39.96875 8.140625 C 22.796875 8.234375 9.746094 21.378906 9.800781 38.925781 C 9.855469 56.351562 23.050781 69.882812 39.996094 69.855469 M 39.6875 77.777344 C 23.398438 77.777344 9.707031 68.929688 3.699219 54.542969 C -2.484375 39.753906 0.875 22.34375 12.117188 11.222656 C 18.59375 4.824219 26.421875 1.238281 35.484375 0.445312 C 40.835938 -0.0234375 46.125 0.246094 51.355469 1.691406 C 69.988281 6.859375 81.027344 24.925781 78.714844 43.515625 C 76.183594 63.925781 60.191406 77.777344 39.6875 77.777344 " clip-rule="nonzero"/></clipPath><clipPath id="bbccb37172"><rect x="0" width="80" y="0" height="78"/></clipPath><clipPath id="b3976ce408"><path d="M 1168.296875 195 L 1257.171875 195 L 1257.171875 320.351562 L 1168.296875 320.351562 Z M 1168.296875 195 " clip-rule="nonzero"/></clipPath><clipPath id="4f68605f3f"><path d="M 1178.277344 264.367188 C 1179.039062 264.636719 1179.441406 264.890625 1179.828125 264.890625 C 1192.007812 264.863281 1204.1875 265.023438 1216.351562 264.703125 C 1222.832031 264.53125 1228.988281 262.496094 1234.476562 258.933594 C 1244.59375 252.378906 1248.863281 242.808594 1247.898438 231.015625 C 1246.960938 219.253906 1240.726562 211.210938 1229.738281 206.832031 C 1224.691406 204.824219 1219.445312 203.886719 1214.089844 203.820312 C 1203.410156 203.6875 1192.71875 203.753906 1182.039062 203.792969 C 1180.820312 203.792969 1179.601562 204.144531 1178.15625 204.371094 C 1177.996094 205.628906 1177.78125 206.660156 1177.742188 207.691406 C 1177.246094 222.492188 1177.566406 258.722656 1178.277344 264.355469 M 1168.933594 195.484375 C 1171.222656 195.363281 1172.910156 195.1875 1174.597656 195.175781 C 1186.789062 195.164062 1198.996094 195.148438 1211.199219 195.175781 C 1216.339844 195.1875 1221.480469 195.351562 1226.5 196.660156 C 1228.15625 197.089844 1229.832031 197.476562 1231.4375 198.027344 C 1250.949219 204.679688 1259.246094 220.765625 1256.730469 239.648438 C 1255.019531 252.457031 1248.03125 261.734375 1236.617188 267.675781 C 1228.464844 271.929688 1219.660156 273.496094 1210.570312 273.628906 C 1202.007812 273.75 1193.441406 273.644531 1184.875 273.671875 C 1182.773438 273.671875 1180.671875 273.804688 1178.210938 273.898438 C 1178.023438 275.851562 1177.742188 277.5 1177.726562 279.132812 C 1177.6875 290.480469 1177.714844 301.828125 1177.6875 313.164062 C 1177.6875 315.253906 1177.515625 317.355469 1177.40625 319.671875 C 1174.570312 320.273438 1172.082031 320.246094 1169.257812 319.738281 C 1169.042969 318.558594 1168.640625 317.339844 1168.640625 316.136719 C 1168.628906 277.191406 1168.640625 238.230469 1168.65625 199.269531 C 1168.65625 198.226562 1168.800781 197.183594 1168.933594 195.484375 " clip-rule="nonzero"/></clipPath><clipPath id="dcc405fa3b"><path d="M 0.558594 0.121094 L 89.171875 0.121094 L 89.171875 125.351562 L 0.558594 125.351562 Z M 0.558594 0.121094 " clip-rule="nonzero"/></clipPath><clipPath id="453b220eaa"><path d="M 10.277344 69.367188 C 11.039062 69.636719 11.441406 69.890625 11.828125 69.890625 C 24.007812 69.863281 36.1875 70.023438 48.351562 69.703125 C 54.832031 69.53125 60.988281 67.496094 66.476562 63.933594 C 76.59375 57.378906 80.863281 47.808594 79.898438 36.015625 C 78.960938 24.253906 72.726562 16.210938 61.738281 11.832031 C 56.691406 9.824219 51.445312 8.886719 46.089844 8.820312 C 35.410156 8.6875 24.71875 8.753906 14.039062 8.792969 C 12.820312 8.792969 11.601562 9.144531 10.15625 9.371094 C 9.996094 10.628906 9.78125 11.660156 9.742188 12.691406 C 9.246094 27.492188 9.566406 63.722656 10.277344 69.355469 M 0.933594 0.484375 C 3.222656 0.363281 4.910156 0.1875 6.597656 0.175781 C 18.789062 0.164062 30.996094 0.148438 43.199219 0.175781 C 48.339844 0.1875 53.480469 0.351562 58.5 1.660156 C 60.15625 2.089844 61.832031 2.476562 63.4375 3.027344 C 82.949219 9.679688 91.246094 25.765625 88.730469 44.648438 C 87.019531 57.457031 80.03125 66.734375 68.617188 72.675781 C 60.464844 76.929688 51.660156 78.496094 42.570312 78.628906 C 34.007812 78.75 25.441406 78.644531 16.875 78.671875 C 14.773438 78.671875 12.671875 78.804688 10.210938 78.898438 C 10.023438 80.851562 9.742188 82.5 9.726562 84.132812 C 9.6875 95.480469 9.714844 106.828125 9.6875 118.164062 C 9.6875 120.253906 9.515625 122.355469 9.40625 124.671875 C 6.570312 125.273438 4.082031 125.246094 1.257812 124.738281 C 1.042969 123.558594 0.640625 122.339844 0.640625 121.136719 C 0.628906 82.191406 0.640625 43.230469 0.65625 4.269531 C 0.65625 3.226562 0.800781 2.183594 0.933594 0.484375 " clip-rule="nonzero"/></clipPath><clipPath id="d6fe9ce2bf"><rect x="0" width="90" y="0" height="126"/></clipPath><clipPath id="8275ed150d"><path d="M 1241.414062 340.242188 L 1309.953125 340.242188 L 1309.953125 418 L 1241.414062 418 Z M 1241.414062 340.242188 " clip-rule="nonzero"/></clipPath><clipPath id="417a62ce1e"><path d="M 1281.910156 340.269531 C 1290.34375 340.175781 1298.332031 342.769531 1305.441406 348.042969 C 1306.296875 348.6875 1307.179688 349.300781 1307.929688 350.050781 C 1309.800781 351.925781 1310.003906 354.039062 1308.597656 355.792969 C 1307.246094 357.480469 1304.824219 358.027344 1302.816406 356.863281 C 1301.34375 356.019531 1300.058594 354.855469 1298.652344 353.878906 C 1293.421875 350.277344 1287.667969 348.390625 1281.253906 348.152344 C 1267.082031 347.613281 1253.269531 357.480469 1251.023438 374.675781 C 1250.5 378.707031 1250.742188 382.746094 1251.703125 386.777344 C 1256.777344 407.949219 1280.0625 415.925781 1297.410156 404.976562 C 1299.578125 403.613281 1301.476562 401.84375 1303.59375 400.414062 C 1305.585938 399.074219 1307.863281 399.625 1309.199219 401.550781 C 1310.351562 403.199219 1310.191406 405.109375 1308.492188 406.757812 C 1304.273438 410.824219 1299.417969 413.890625 1293.835938 415.699219 C 1285.242188 418.480469 1276.570312 418.628906 1267.9375 415.992188 C 1253.070312 411.453125 1242.644531 397.761719 1241.761719 382.144531 C 1241.050781 369.429688 1244.878906 358.496094 1254.382812 349.863281 C 1262.023438 342.929688 1271.203125 339.933594 1281.910156 340.269531 " clip-rule="nonzero"/></clipPath><clipPath id="5cef26c4f1"><path d="M 0.519531 0.242188 L 68.953125 0.242188 L 68.953125 78 L 0.519531 78 Z M 0.519531 0.242188 " clip-rule="nonzero"/></clipPath><clipPath id="1ce5b7259b"><path d="M 40.910156 0.269531 C 49.34375 0.175781 57.332031 2.769531 64.441406 8.042969 C 65.296875 8.6875 66.179688 9.300781 66.929688 10.050781 C 68.800781 11.925781 69.003906 14.039062 67.597656 15.792969 C 66.246094 17.480469 63.824219 18.027344 61.816406 16.863281 C 60.34375 16.019531 59.058594 14.855469 57.652344 13.878906 C 52.421875 10.277344 46.667969 8.390625 40.253906 8.152344 C 26.082031 7.613281 12.269531 17.480469 10.023438 34.675781 C 9.5 38.707031 9.742188 42.746094 10.703125 46.777344 C 15.777344 67.949219 39.0625 75.925781 56.410156 64.976562 C 58.578125 63.613281 60.476562 61.84375 62.59375 60.414062 C 64.585938 59.074219 66.863281 59.625 68.199219 61.550781 C 69.351562 63.199219 69.191406 65.109375 67.492188 66.757812 C 63.273438 70.824219 58.417969 73.890625 52.835938 75.699219 C 44.242188 78.480469 35.570312 78.628906 26.9375 75.992188 C 12.070312 71.453125 1.644531 57.761719 0.761719 42.144531 C 0.0507812 29.429688 3.878906 18.496094 13.382812 9.863281 C 21.023438 2.929688 30.203125 -0.0664062 40.910156 0.269531 " clip-rule="nonzero"/></clipPath><clipPath id="b63e4227ea"><rect x="0" width="69" y="0" height="78"/></clipPath><clipPath id="9fb8af22f0"><path d="M 234 79 L 657.910156 79 L 657.910156 509.867188 L 234 509.867188 Z M 234 79 " clip-rule="nonzero"/></clipPath><clipPath id="0259819c7d"><path d="M 366.804688 199.714844 L 366.816406 199.714844 C 366.816406 210.503906 366.671875 221.292969 366.855469 232.082031 C 367.101562 246.15625 377.871094 254.441406 389.316406 254.367188 C 408.105469 254.253906 426.910156 254.929688 445.597656 252.324219 C 451.242188 251.535156 456.960938 250.820312 462.441406 249.324219 C 473.660156 246.277344 483.664062 240.847656 491.730469 232.289062 C 498.800781 224.789062 502.765625 215.902344 503.921875 205.605469 C 504.832031 197.535156 504.160156 189.578125 502.59375 181.742188 C 499.382812 165.707031 490.199219 154.671875 474.40625 149.546875 C 473.324219 149.199219 472.230469 148.875 471.125 148.554688 C 462.105469 145.957031 452.828125 145.070312 443.511719 144.945312 C 425.695312 144.710938 407.867188 144.832031 390.050781 144.8125 C 389.234375 144.8125 388.417969 144.824219 387.597656 144.886719 C 377.054688 145.691406 369.28125 152.574219 367.285156 162.988281 C 366.917969 164.898438 366.828125 166.882812 366.816406 168.828125 C 366.773438 179.125 366.796875 189.425781 366.796875 199.722656 M 365.9375 384.273438 C 365.9375 395.402344 365.894531 406.527344 365.96875 417.65625 C 365.988281 420.265625 366.203125 422.894531 366.621094 425.460938 C 368.105469 434.726562 375.355469 441.722656 384.640625 442.96875 C 386.585938 443.226562 388.550781 443.460938 390.503906 443.441406 C 405.21875 443.277344 419.9375 443.746094 434.664062 443.0625 C 444.972656 442.582031 455.199219 441.691406 465.375 440.023438 C 479.273438 437.753906 491.597656 432.015625 502.195312 422.78125 C 512.402344 413.894531 518.097656 402.511719 519.285156 389.070312 C 520.164062 379.058594 519.121094 369.136719 516.265625 359.464844 C 514.773438 354.410156 512.492188 349.714844 509.292969 345.484375 C 503.667969 338.027344 496.109375 333.363281 487.394531 330.4375 C 476.75 326.859375 465.683594 325.640625 454.554688 325.527344 C 432.792969 325.292969 411.039062 325.417969 389.273438 325.394531 C 388.457031 325.394531 387.640625 325.394531 386.820312 325.449219 C 374.679688 326.195312 367.523438 335.5625 366.570312 343.582031 C 366.273438 346.015625 365.988281 348.457031 365.976562 350.894531 C 365.917969 362.019531 365.945312 373.148438 365.945312 384.273438 M 530.890625 279.90625 C 535.792969 281.878906 539.921875 282.042969 543.910156 282.585938 C 556.492188 284.292969 568.476562 288.003906 580.15625 292.75 C 596.816406 299.519531 612.066406 308.601562 625.148438 321.082031 C 640.898438 336.105469 650.910156 354.296875 655.070312 375.671875 C 656.390625 382.421875 657.046875 389.328125 657.003906 396.160156 C 656.914062 412.011719 654.234375 427.363281 646.707031 441.617188 C 640.253906 453.859375 631.375 463.957031 620.453125 472.332031 C 608.394531 481.578125 594.933594 488.203125 580.710938 493.339844 C 565.132812 498.953125 549.078125 502.613281 532.734375 505.191406 C 522.230469 506.847656 511.644531 507.667969 501.078125 508.792969 C 498.644531 509.046875 496.171875 508.894531 493.726562 509.039062 C 474.601562 510.164062 455.457031 509.816406 436.320312 509.816406 C 377.09375 509.835938 317.859375 509.824219 258.632812 509.792969 C 256.035156 509.792969 253.394531 509.609375 250.847656 509.128906 C 243.433594 507.738281 238.648438 503.117188 236.152344 496.171875 C 235.335938 493.902344 235.171875 491.386719 234.875 488.960938 C 234.699219 487.507812 234.832031 486.015625 234.832031 484.542969 C 234.84375 357.910156 234.832031 231.265625 234.863281 104.628906 C 234.863281 101.707031 234.933594 98.707031 235.527344 95.867188 C 237.554688 86.304688 244.816406 80.257812 254.570312 79.746094 C 256.207031 79.664062 257.84375 79.714844 259.480469 79.714844 C 321.980469 79.726562 384.480469 79.738281 446.988281 79.714844 C 464.824219 79.714844 482.660156 79.613281 500.488281 79.59375 C 508.023438 79.582031 515.480469 80.546875 522.957031 81.363281 C 534.03125 82.570312 544.925781 84.667969 555.671875 87.511719 C 569.949219 91.292969 583.707031 96.429688 596.511719 103.914062 C 607.628906 110.410156 617.546875 118.335938 625.566406 128.492188 C 634.351562 139.617188 639.976562 152.15625 642.613281 166.074219 C 644.242188 174.636719 644.917969 183.277344 644.394531 191.941406 C 643.003906 215.023438 633.777344 234.191406 615.390625 248.601562 C 605.246094 256.554688 593.839844 262.171875 581.761719 266.519531 C 569.734375 270.84375 557.339844 273.777344 544.832031 276.253906 C 541.304688 276.949219 537.765625 277.582031 534.257812 278.339844 C 533.386719 278.523438 532.601562 279.085938 530.890625 279.886719 " clip-rule="nonzero"/></clipPath><clipPath id="c44d1c6096"><path d="M 0.71875 0.441406 L 423 0.441406 L 423 430.867188 L 0.71875 430.867188 Z M 0.71875 0.441406 " clip-rule="nonzero"/></clipPath><clipPath id="18de13f67b"><path d="M 132.804688 120.714844 L 132.816406 120.714844 C 132.816406 131.503906 132.671875 142.292969 132.855469 153.082031 C 133.101562 167.15625 143.871094 175.441406 155.316406 175.367188 C 174.105469 175.253906 192.910156 175.929688 211.597656 173.324219 C 217.242188 172.535156 222.960938 171.820312 228.441406 170.324219 C 239.660156 167.277344 249.664062 161.847656 257.730469 153.289062 C 264.800781 145.789062 268.765625 136.902344 269.921875 126.605469 C 270.832031 118.535156 270.160156 110.578125 268.59375 102.742188 C 265.382812 86.707031 256.199219 75.671875 240.40625 70.546875 C 239.324219 70.199219 238.230469 69.875 237.125 69.554688 C 228.105469 66.957031 218.828125 66.070312 209.511719 65.945312 C 191.695312 65.710938 173.867188 65.832031 156.050781 65.8125 C 155.234375 65.8125 154.417969 65.824219 153.597656 65.886719 C 143.054688 66.691406 135.28125 73.574219 133.285156 83.988281 C 132.917969 85.898438 132.828125 87.882812 132.816406 89.828125 C 132.773438 100.125 132.796875 110.425781 132.796875 120.722656 M 131.9375 305.273438 C 131.9375 316.402344 131.894531 327.527344 131.96875 338.65625 C 131.988281 341.265625 132.203125 343.894531 132.621094 346.460938 C 134.105469 355.726562 141.355469 362.722656 150.640625 363.96875 C 152.585938 364.226562 154.550781 364.460938 156.503906 364.441406 C 171.21875 364.277344 185.9375 364.746094 200.664062 364.0625 C 210.972656 363.582031 221.199219 362.691406 231.375 361.023438 C 245.273438 358.753906 257.597656 353.015625 268.195312 343.78125 C 278.402344 334.894531 284.097656 323.511719 285.285156 310.070312 C 286.164062 300.058594 285.121094 290.136719 282.265625 280.464844 C 280.773438 275.410156 278.492188 270.714844 275.292969 266.484375 C 269.667969 259.027344 262.109375 254.363281 253.394531 251.4375 C 242.75 247.859375 231.683594 246.640625 220.554688 246.527344 C 198.792969 246.292969 177.039062 246.417969 155.273438 246.394531 C 154.457031 246.394531 153.640625 246.394531 152.820312 246.449219 C 140.679688 247.195312 133.523438 256.5625 132.570312 264.582031 C 132.273438 267.015625 131.988281 269.457031 131.976562 271.894531 C 131.917969 283.019531 131.945312 294.148438 131.945312 305.273438 M 296.890625 200.90625 C 301.792969 202.878906 305.921875 203.042969 309.910156 203.585938 C 322.492188 205.292969 334.476562 209.003906 346.15625 213.75 C 362.816406 220.519531 378.066406 229.601562 391.148438 242.082031 C 406.898438 257.105469 416.910156 275.296875 421.070312 296.671875 C 422.390625 303.421875 423.046875 310.328125 423.003906 317.160156 C 422.914062 333.011719 420.234375 348.363281 412.707031 362.617188 C 406.253906 374.859375 397.375 384.957031 386.453125 393.332031 C 374.394531 402.578125 360.933594 409.203125 346.710938 414.339844 C 331.132812 419.953125 315.078125 423.613281 298.734375 426.191406 C 288.230469 427.847656 277.644531 428.667969 267.078125 429.792969 C 264.644531 430.046875 262.171875 429.894531 259.726562 430.039062 C 240.601562 431.164062 221.457031 430.816406 202.320312 430.816406 C 143.09375 430.835938 83.859375 430.824219 24.632812 430.792969 C 22.035156 430.792969 19.394531 430.609375 16.847656 430.128906 C 9.433594 428.738281 4.648438 424.117188 2.152344 417.171875 C 1.335938 414.902344 1.171875 412.386719 0.875 409.960938 C 0.699219 408.507812 0.832031 407.015625 0.832031 405.542969 C 0.84375 278.910156 0.832031 152.265625 0.863281 25.628906 C 0.863281 22.707031 0.933594 19.707031 1.527344 16.867188 C 3.554688 7.304688 10.816406 1.257812 20.570312 0.746094 C 22.207031 0.664062 23.84375 0.714844 25.480469 0.714844 C 87.980469 0.726562 150.480469 0.738281 212.988281 0.714844 C 230.824219 0.714844 248.660156 0.613281 266.488281 0.59375 C 274.023438 0.582031 281.480469 1.546875 288.957031 2.363281 C 300.03125 3.570312 310.925781 5.667969 321.671875 8.511719 C 335.949219 12.292969 349.707031 17.429688 362.511719 24.914062 C 373.628906 31.410156 383.546875 39.335938 391.566406 49.492188 C 400.351562 60.617188 405.976562 73.15625 408.613281 87.074219 C 410.242188 95.636719 410.917969 104.277344 410.394531 112.941406 C 409.003906 136.023438 399.777344 155.191406 381.390625 169.601562 C 371.246094 177.554688 359.839844 183.171875 347.761719 187.519531 C 335.734375 191.84375 323.339844 194.777344 310.832031 197.253906 C 307.304688 197.949219 303.765625 198.582031 300.257812 199.339844 C 299.386719 199.523438 298.601562 200.085938 296.890625 200.886719 " clip-rule="nonzero"/></clipPath><clipPath id="bdd967ff08"><rect x="0" width="424" y="0" height="431"/></clipPath><clipPath id="d78a0d50b9"><path d="M 1277.515625 192.40625 L 1399.511719 192.40625 L 1399.511719 322.441406 L 1277.515625 322.441406 Z M 1277.515625 192.40625 " clip-rule="nonzero"/></clipPath><clipPath id="63da5fefe6"><path d="M 1287.609375 251.769531 C 1287.273438 268.96875 1290.890625 281.507812 1297.488281 291.371094 C 1318.207031 322.273438 1363.066406 321.164062 1381.457031 288.828125 C 1393.554688 267.5625 1393.128906 245.574219 1380.160156 224.800781 C 1360.324219 192.988281 1315.03125 193.9375 1295.828125 226.125 C 1290.207031 235.546875 1287.636719 245.8125 1287.609375 251.769531 M 1399.042969 256.667969 C 1399.054688 274.5625 1393.996094 289.523438 1383.007812 302.121094 C 1369.519531 317.578125 1352.199219 323.800781 1331.882812 321.953125 C 1306.816406 319.679688 1284.464844 300.367188 1279.21875 270.816406 C 1275.859375 251.875 1279.296875 234.183594 1290.246094 218.214844 C 1310.550781 188.625 1350.941406 185.574219 1375.726562 205.824219 C 1389.351562 216.945312 1396.527344 231.601562 1398.628906 248.890625 C 1398.988281 251.851562 1398.949219 254.859375 1399.042969 256.667969 " clip-rule="nonzero"/></clipPath><clipPath id="b09ba8f6c1"><path d="M 0.761719 0.71875 L 122.199219 0.71875 L 122.199219 130.441406 L 0.761719 130.441406 Z M 0.761719 0.71875 " clip-rule="nonzero"/></clipPath><clipPath id="a54b0c74bc"><path d="M 10.609375 59.769531 C 10.273438 76.96875 13.890625 89.507812 20.488281 99.371094 C 41.207031 130.273438 86.066406 129.164062 104.457031 96.828125 C 116.554688 75.5625 116.128906 53.574219 103.160156 32.800781 C 83.324219 0.988281 38.03125 1.9375 18.828125 34.125 C 13.207031 43.546875 10.636719 53.8125 10.609375 59.769531 M 122.042969 64.667969 C 122.054688 82.5625 116.996094 97.523438 106.007812 110.121094 C 92.519531 125.578125 75.199219 131.800781 54.882812 129.953125 C 29.816406 127.679688 7.464844 108.367188 2.21875 78.816406 C -1.140625 59.875 2.296875 42.183594 13.246094 26.214844 C 33.550781 -3.375 73.941406 -6.425781 98.726562 13.824219 C 112.351562 24.945312 119.527344 39.601562 121.628906 56.890625 C 121.988281 59.851562 121.949219 62.859375 122.042969 64.667969 " clip-rule="nonzero"/></clipPath><clipPath id="8927152b7e"><rect x="0" width="123" y="0" height="131"/></clipPath><clipPath id="9168183add"><path d="M 1331.125 339.984375 L 1409.410156 339.984375 L 1409.410156 417.894531 L 1331.125 417.894531 Z M 1331.125 339.984375 " clip-rule="nonzero"/></clipPath><clipPath id="a40bf02bbe"><path d="M 1400.121094 378.984375 C 1400.292969 375.382812 1399.652344 371.59375 1398.339844 367.941406 C 1394.125 356.164062 1383.375 348.441406 1370.957031 348.214844 C 1358.121094 347.972656 1347.347656 354.917969 1342.621094 366.46875 C 1340.46875 371.757812 1340.066406 377.257812 1340.574219 382.863281 C 1341.953125 397.71875 1354.308594 409.445312 1369.230469 409.832031 C 1389.238281 410.355469 1400.613281 394.226562 1400.105469 378.996094 M 1370.636719 339.996094 C 1388.972656 340.332031 1403.625 351.183594 1407.976562 368.558594 C 1414.707031 395.40625 1395.570312 417.476562 1371.117188 417.796875 C 1352.488281 418.039062 1337.390625 407.398438 1332.652344 390.039062 C 1326.5625 367.632812 1339.34375 346.007812 1361.132812 341.175781 C 1364.238281 340.492188 1367.476562 340.371094 1370.648438 339.996094 " clip-rule="nonzero"/></clipPath><clipPath id="44ccc28cbe"><path d="M 0.125 0.984375 L 78.410156 0.984375 L 78.410156 78.894531 L 0.125 78.894531 Z M 0.125 0.984375 " clip-rule="nonzero"/></clipPath><clipPath id="a6877f31c8"><path d="M 69.121094 39.984375 C 69.292969 36.382812 68.652344 32.59375 67.339844 28.941406 C 63.125 17.164062 52.375 9.441406 39.957031 9.214844 C 27.121094 8.972656 16.347656 15.917969 11.621094 27.46875 C 9.46875 32.757812 9.066406 38.257812 9.574219 43.863281 C 10.953125 58.71875 23.308594 70.445312 38.230469 70.832031 C 58.238281 71.355469 69.613281 55.226562 69.105469 39.996094 M 39.636719 0.996094 C 57.972656 1.332031 72.625 12.183594 76.976562 29.558594 C 83.707031 56.40625 64.570312 78.476562 40.117188 78.796875 C 21.488281 79.039062 6.390625 68.398438 1.652344 51.039062 C -4.4375 28.632812 8.34375 7.007812 30.132812 2.175781 C 33.238281 1.492188 36.476562 1.371094 39.648438 0.996094 " clip-rule="nonzero"/></clipPath><clipPath id="2fab474589"><rect x="0" width="79" y="0" height="79"/></clipPath><clipPath id="eff8dfc9d0"><path d="M 1412.375 401 L 1433.523438 401 L 1433.523438 421.605469 L 1412.375 421.605469 Z M 1412.375 401 " clip-rule="nonzero"/></clipPath><clipPath id="df83ced7a2"><path d="M 1430.472656 415.574219 C 1429.722656 416.941406 1428.667969 417.996094 1427.300781 418.746094 C 1425.9375 419.496094 1424.519531 419.882812 1423.046875 419.882812 C 1421.574219 419.882812 1420.140625 419.507812 1418.777344 418.746094 C 1417.410156 417.984375 1416.339844 416.941406 1415.589844 415.574219 C 1414.839844 414.210938 1414.453125 412.804688 1414.453125 411.320312 C 1414.453125 409.832031 1414.828125 408.402344 1415.605469 407.023438 C 1416.378906 405.644531 1417.453125 404.585938 1418.816406 403.851562 C 1420.183594 403.113281 1421.585938 402.738281 1423.03125 402.738281 C 1424.476562 402.738281 1425.871094 403.113281 1427.234375 403.851562 C 1428.601562 404.585938 1429.683594 405.644531 1430.433594 407.023438 C 1431.183594 408.402344 1431.585938 409.832031 1431.585938 411.320312 C 1431.585938 412.804688 1431.210938 414.222656 1430.460938 415.574219 M 1431.917969 406.164062 C 1430.996094 404.519531 1429.710938 403.25 1428.066406 402.351562 C 1426.417969 401.453125 1424.730469 401.027344 1423.003906 401.027344 C 1421.277344 401.027344 1419.59375 401.46875 1417.945312 402.351562 C 1416.300781 403.234375 1415.042969 404.507812 1414.117188 406.152344 C 1413.195312 407.796875 1412.742188 409.523438 1412.742188 411.304688 C 1412.742188 413.070312 1413.195312 414.773438 1414.105469 416.417969 C 1415.015625 418.0625 1416.285156 419.320312 1417.917969 420.21875 C 1419.550781 421.117188 1421.265625 421.570312 1423.046875 421.570312 C 1424.824219 421.570312 1426.527344 421.117188 1428.160156 420.21875 C 1429.792969 419.320312 1431.0625 418.050781 1431.960938 416.417969 C 1432.855469 414.785156 1433.324219 413.070312 1433.324219 411.304688 C 1433.324219 409.511719 1432.855469 407.796875 1431.945312 406.152344 " clip-rule="nonzero"/></clipPath><clipPath id="209d84f24d"><path d="M 0.640625 0 L 21.519531 0 L 21.519531 20.605469 L 0.640625 20.605469 Z M 0.640625 0 " clip-rule="nonzero"/></clipPath><clipPath id="a5ed43d43a"><path d="M 18.472656 14.574219 C 17.722656 15.941406 16.667969 16.996094 15.300781 17.746094 C 13.9375 18.496094 12.519531 18.882812 11.046875 18.882812 C 9.574219 18.882812 8.140625 18.507812 6.777344 17.746094 C 5.410156 16.984375 4.339844 15.941406 3.589844 14.574219 C 2.839844 13.210938 2.453125 11.804688 2.453125 10.320312 C 2.453125 8.832031 2.828125 7.402344 3.605469 6.023438 C 4.378906 4.644531 5.453125 3.585938 6.816406 2.851562 C 8.183594 2.113281 9.585938 1.738281 11.03125 1.738281 C 12.476562 1.738281 13.871094 2.113281 15.234375 2.851562 C 16.601562 3.585938 17.683594 4.644531 18.433594 6.023438 C 19.183594 7.402344 19.585938 8.832031 19.585938 10.320312 C 19.585938 11.804688 19.210938 13.222656 18.460938 14.574219 M 19.917969 5.164062 C 18.996094 3.519531 17.710938 2.25 16.066406 1.351562 C 14.417969 0.453125 12.730469 0.0273438 11.003906 0.0273438 C 9.277344 0.0273438 7.59375 0.46875 5.945312 1.351562 C 4.300781 2.234375 3.042969 3.507812 2.117188 5.152344 C 1.195312 6.796875 0.742188 8.523438 0.742188 10.304688 C 0.742188 12.070312 1.195312 13.773438 2.105469 15.417969 C 3.015625 17.0625 4.285156 18.320312 5.917969 19.21875 C 7.550781 20.117188 9.265625 20.570312 11.046875 20.570312 C 12.824219 20.570312 14.527344 20.117188 16.160156 19.21875 C 17.792969 18.320312 19.0625 17.050781 19.960938 15.417969 C 20.855469 13.785156 21.324219 12.070312 21.324219 10.304688 C 21.324219 8.511719 20.855469 6.796875 19.945312 5.152344 " clip-rule="nonzero"/></clipPath><clipPath id="023e204165"><rect x="0" width="22" y="0" height="21"/></clipPath><clipPath id="15764c0e92"><path d="M 1418.3125 405.652344 L 1427.957031 405.652344 L 1427.957031 417.152344 L 1418.3125 417.152344 Z M 1418.3125 405.652344 " clip-rule="nonzero"/></clipPath><clipPath id="875858a2ca"><path d="M 1422.484375 410.78125 L 1420.273438 410.78125 L 1420.273438 407.410156 L 1422.351562 407.410156 C 1423.234375 407.410156 1423.835938 407.476562 1424.171875 407.597656 C 1424.503906 407.71875 1424.746094 407.917969 1424.945312 408.1875 C 1425.148438 408.453125 1425.226562 408.75 1425.226562 409.070312 C 1425.226562 409.59375 1425.027344 410.007812 1424.652344 410.316406 C 1424.277344 410.621094 1423.539062 410.78125 1422.496094 410.78125 M 1424.824219 412.644531 C 1424.585938 412.414062 1424.277344 412.214844 1423.890625 412.054688 C 1424.851562 411.988281 1425.617188 411.640625 1426.191406 411.050781 C 1426.765625 410.460938 1427.0625 409.738281 1427.0625 408.9375 C 1427.0625 408.359375 1426.886719 407.8125 1426.539062 407.316406 C 1426.191406 406.820312 1425.734375 406.445312 1425.148438 406.246094 C 1424.558594 406.046875 1423.621094 405.9375 1422.324219 405.9375 L 1418.496094 405.9375 L 1418.496094 417.035156 L 1420.273438 417.035156 L 1420.273438 412.308594 L 1421.332031 412.308594 C 1421.976562 412.308594 1422.457031 412.429688 1422.777344 412.683594 C 1423.246094 413.03125 1423.875 413.886719 1424.652344 415.265625 L 1425.640625 417.019531 L 1427.808594 417.019531 L 1426.457031 414.851562 C 1425.816406 413.820312 1425.253906 413.085938 1424.8125 412.644531 " clip-rule="nonzero"/></clipPath><clipPath id="a2adf39a4b"><path d="M 0.398438 0.839844 L 9.957031 0.839844 L 9.957031 12.121094 L 0.398438 12.121094 Z M 0.398438 0.839844 " clip-rule="nonzero"/></clipPath><clipPath id="786ec6e957"><path d="M 4.484375 5.78125 L 2.273438 5.78125 L 2.273438 2.410156 L 4.351562 2.410156 C 5.234375 2.410156 5.835938 2.476562 6.171875 2.597656 C 6.503906 2.71875 6.746094 2.917969 6.945312 3.1875 C 7.148438 3.453125 7.226562 3.75 7.226562 4.070312 C 7.226562 4.59375 7.027344 5.007812 6.652344 5.316406 C 6.277344 5.621094 5.539062 5.78125 4.496094 5.78125 M 6.824219 7.644531 C 6.585938 7.414062 6.277344 7.214844 5.890625 7.054688 C 6.851562 6.988281 7.617188 6.640625 8.191406 6.050781 C 8.765625 5.460938 9.0625 4.738281 9.0625 3.9375 C 9.0625 3.359375 8.886719 2.8125 8.539062 2.316406 C 8.191406 1.820312 7.734375 1.445312 7.148438 1.246094 C 6.558594 1.046875 5.621094 0.9375 4.324219 0.9375 L 0.496094 0.9375 L 0.496094 12.035156 L 2.273438 12.035156 L 2.273438 7.308594 L 3.332031 7.308594 C 3.976562 7.308594 4.457031 7.429688 4.777344 7.683594 C 5.246094 8.03125 5.875 8.886719 6.652344 10.265625 L 7.640625 12.019531 L 9.808594 12.019531 L 8.457031 9.851562 C 7.816406 8.820312 7.253906 8.085938 6.8125 7.644531 " clip-rule="nonzero"/></clipPath><clipPath id="58a4133a33"><rect x="0" width="10" y="0" height="13"/></clipPath><clipPath id="b6a411ec1d"><path d="M 156.449219 546.746094 L 736.589844 546.746094 L 736.589844 586.421875 L 156.449219 586.421875 Z M 156.449219 546.746094 " clip-rule="nonzero"/></clipPath><clipPath id="806938b188"><path d="M 156.554688 586.324219 C 157.457031 584.964844 158.949219 584.707031 160.339844 584.289062 C 176.316406 579.523438 192.414062 575.277344 208.652344 571.503906 C 226.152344 567.433594 243.785156 563.988281 261.496094 560.988281 C 271.316406 559.332031 281.195312 558.015625 291.066406 556.664062 C 300.453125 555.386719 309.851562 554.210938 319.25 553.085938 C 323.792969 552.542969 328.363281 552.234375 332.914062 551.828125 C 338.9375 551.285156 344.953125 550.703125 350.976562 550.199219 C 356.019531 549.769531 361.070312 549.339844 366.132812 549.066406 C 373.96875 548.625 381.8125 548.359375 389.644531 547.917969 C 406.960938 546.949219 424.296875 546.824219 441.632812 546.835938 C 455.855469 546.847656 470.09375 546.804688 484.320312 547.113281 C 494.609375 547.335938 504.886719 548.082031 515.175781 548.613281 C 523.171875 549.035156 531.171875 549.414062 539.167969 549.953125 C 544.875 550.34375 550.5625 550.957031 556.246094 551.488281 C 560.800781 551.910156 565.359375 552.308594 569.910156 552.796875 C 577.703125 553.648438 585.496094 554.496094 593.269531 555.476562 C 600.890625 556.4375 608.5 557.429688 616.078125 558.636719 C 628.492188 560.613281 640.917969 562.535156 653.273438 564.875 C 675.425781 569.078125 697.363281 574.203125 719.085938 580.289062 C 723.648438 581.566406 728.1875 582.917969 732.738281 584.214844 C 734.160156 584.625 735.613281 584.941406 736.433594 586.363281 L 736.453125 586.375 C 732.308594 585.496094 728.199219 584.480469 724.027344 583.765625 C 712.4375 581.78125 700.839844 579.847656 689.234375 578.039062 C 681.328125 576.800781 673.390625 575.820312 665.464844 574.714844 C 659.320312 573.855469 653.183594 572.925781 647.023438 572.160156 C 640.222656 571.308594 633.390625 570.59375 626.582031 569.835938 C 618.953125 568.988281 611.320312 568.140625 603.691406 567.320312 C 599.960938 566.921875 596.214844 566.554688 592.472656 566.238281 C 586.941406 565.777344 581.398438 565.367188 575.855469 564.925781 C 569.503906 564.425781 563.152344 563.925781 556.800781 563.425781 C 555.820312 563.34375 554.847656 563.230469 553.863281 563.167969 C 548.648438 562.839844 543.421875 562.492188 538.207031 562.207031 C 531.847656 561.847656 525.472656 561.5 519.101562 561.234375 C 490.824219 560.027344 462.535156 559.773438 434.238281 559.957031 C 422.945312 560.027344 411.664062 560.070312 400.375 560.292969 C 391.546875 560.46875 382.722656 560.828125 373.90625 561.265625 C 365.582031 561.675781 357.265625 562.320312 348.953125 562.832031 C 342.261719 563.238281 335.5625 563.535156 328.886719 564.007812 C 322.359375 564.46875 315.855469 565.070312 309.351562 565.632812 C 305.445312 565.972656 301.546875 566.371094 297.640625 566.726562 C 289.675781 567.464844 281.695312 568.128906 273.730469 568.96875 C 266.582031 569.714844 259.453125 570.65625 252.324219 571.515625 C 246.003906 572.28125 239.671875 573.007812 233.363281 573.847656 C 225.589844 574.890625 217.828125 575.972656 210.074219 577.148438 C 200.554688 578.589844 191.03125 580.074219 181.542969 581.699219 C 173.183594 583.132812 164.859375 584.789062 156.523438 586.34375 Z M 156.554688 586.324219 " clip-rule="nonzero"/></clipPath><clipPath id="ad84fcca8d"><path d="M 0.480469 0.746094 L 580.558594 0.746094 L 580.558594 40.421875 L 0.480469 40.421875 Z M 0.480469 0.746094 " clip-rule="nonzero"/></clipPath><clipPath id="834705d635"><path d="M 0.554688 40.324219 C 1.457031 38.964844 2.949219 38.707031 4.339844 38.289062 C 20.316406 33.523438 36.414062 29.277344 52.652344 25.503906 C 70.152344 21.433594 87.785156 17.988281 105.496094 14.988281 C 115.316406 13.332031 125.195312 12.015625 135.066406 10.664062 C 144.453125 9.386719 153.851562 8.210938 163.25 7.085938 C 167.792969 6.542969 172.363281 6.234375 176.914062 5.828125 C 182.9375 5.285156 188.953125 4.703125 194.976562 4.199219 C 200.019531 3.769531 205.070312 3.339844 210.132812 3.066406 C 217.96875 2.625 225.8125 2.359375 233.644531 1.917969 C 250.960938 0.949219 268.296875 0.824219 285.632812 0.835938 C 299.855469 0.847656 314.09375 0.804688 328.320312 1.113281 C 338.609375 1.335938 348.886719 2.082031 359.175781 2.613281 C 367.171875 3.035156 375.171875 3.414062 383.167969 3.953125 C 388.875 4.34375 394.5625 4.957031 400.246094 5.488281 C 404.800781 5.910156 409.359375 6.308594 413.910156 6.796875 C 421.703125 7.648438 429.496094 8.496094 437.269531 9.476562 C 444.890625 10.4375 452.5 11.429688 460.078125 12.636719 C 472.492188 14.613281 484.917969 16.535156 497.273438 18.875 C 519.425781 23.078125 541.363281 28.203125 563.085938 34.289062 C 567.648438 35.566406 572.1875 36.917969 576.738281 38.214844 C 578.160156 38.625 579.613281 38.941406 580.433594 40.363281 L 580.453125 40.375 C 576.308594 39.496094 572.199219 38.480469 568.027344 37.765625 C 556.4375 35.78125 544.839844 33.847656 533.234375 32.039062 C 525.328125 30.800781 517.390625 29.820312 509.464844 28.714844 C 503.320312 27.855469 497.183594 26.925781 491.023438 26.160156 C 484.222656 25.308594 477.390625 24.59375 470.582031 23.835938 C 462.953125 22.988281 455.320312 22.140625 447.691406 21.320312 C 443.960938 20.921875 440.214844 20.554688 436.472656 20.238281 C 430.941406 19.777344 425.398438 19.367188 419.855469 18.925781 C 413.503906 18.425781 407.152344 17.925781 400.800781 17.425781 C 399.820312 17.34375 398.847656 17.230469 397.863281 17.167969 C 392.648438 16.839844 387.421875 16.492188 382.207031 16.207031 C 375.847656 15.847656 369.472656 15.5 363.101562 15.234375 C 334.824219 14.027344 306.535156 13.773438 278.238281 13.957031 C 266.945312 14.027344 255.664062 14.070312 244.375 14.292969 C 235.546875 14.46875 226.722656 14.828125 217.90625 15.265625 C 209.582031 15.675781 201.265625 16.320312 192.953125 16.832031 C 186.261719 17.238281 179.5625 17.535156 172.886719 18.007812 C 166.359375 18.46875 159.855469 19.070312 153.351562 19.632812 C 149.445312 19.972656 145.546875 20.371094 141.640625 20.726562 C 133.675781 21.464844 125.695312 22.128906 117.730469 22.96875 C 110.582031 23.714844 103.453125 24.65625 96.324219 25.515625 C 90.003906 26.28125 83.671875 27.007812 77.363281 27.847656 C 69.589844 28.890625 61.828125 29.972656 54.074219 31.148438 C 44.554688 32.589844 35.03125 34.074219 25.542969 35.699219 C 17.183594 37.132812 8.859375 38.789062 0.523438 40.34375 Z M 0.554688 40.324219 " clip-rule="nonzero"/></clipPath><clipPath id="e78f0fb4b5"><rect x="0" width="581" y="0" height="41"/></clipPath><clipPath id="48dd40bb43"><path d="M 736.394531 586 L 738.144531 586 L 738.144531 586.421875 L 736.394531 586.421875 Z M 736.394531 586 " clip-rule="nonzero"/></clipPath><clipPath id="a5845296a4"><path d="M 736.433594 586.355469 C 736.972656 586.25 737.507812 586.140625 738.046875 586.027344 C 738.058594 586.097656 738.078125 586.167969 738.089844 586.242188 C 737.546875 586.28125 737.003906 586.3125 736.453125 586.355469 C 736.441406 586.355469 736.421875 586.34375 736.421875 586.34375 " clip-rule="nonzero"/></clipPath><clipPath id="c02b3016f8"><path d="M 0.394531 0 L 2.144531 0 L 2.144531 0.421875 L 0.394531 0.421875 Z M 0.394531 0 " clip-rule="nonzero"/></clipPath><clipPath id="e26ce6971e"><path d="M 0.433594 0.355469 C 0.972656 0.25 1.507812 0.140625 2.046875 0.0273438 C 2.058594 0.0976562 2.078125 0.167969 2.089844 0.242188 C 1.546875 0.28125 1.003906 0.3125 0.453125 0.355469 C 0.441406 0.355469 0.421875 0.34375 0.421875 0.34375 " clip-rule="nonzero"/></clipPath><clipPath id="663087c14e"><rect x="0" width="3" y="0" height="1"/></clipPath><clipPath id="ba217837a2"><path d="M 154.894531 586.035156 L 156.644531 586.035156 L 156.644531 586.421875 L 154.894531 586.421875 Z M 154.894531 586.035156 " clip-rule="nonzero"/></clipPath><clipPath id="eb36959b40"><path d="M 156.515625 586.332031 L 154.949219 586.332031 C 154.960938 586.25 154.972656 586.179688 154.972656 586.097656 C 155.492188 586.167969 156.015625 586.242188 156.546875 586.324219 C 156.554688 586.324219 156.515625 586.332031 156.515625 586.332031 " clip-rule="nonzero"/></clipPath><clipPath id="23b6f51b33"><path d="M 0.894531 0.078125 L 2.644531 0.078125 L 2.644531 0.421875 L 0.894531 0.421875 Z M 0.894531 0.078125 " clip-rule="nonzero"/></clipPath><clipPath id="f91afa3230"><path d="M 2.515625 0.332031 L 0.949219 0.332031 C 0.960938 0.25 0.972656 0.179688 0.972656 0.0976562 C 1.492188 0.167969 2.015625 0.242188 2.546875 0.324219 C 2.554688 0.324219 2.515625 0.332031 2.515625 0.332031 " clip-rule="nonzero"/></clipPath><clipPath id="20a8c7a860"><rect x="0" width="3" y="0" height="1"/></clipPath></defs><g clip-path="url(#eac7be97c6)"><g clip-path="url(#b77eee702a)"><g transform="matrix(1, 0, 0, 1, 772, 341)"><g clip-path="url(#3975cbd632)"><g clip-path="url(#84b89c25da)"><g clip-path="url(#5fef0ce6c4)"><path fill="#ffffff" d="M 0.660156 0.546875 L 62.613281 0.546875 L 62.613281 75.566406 L 0.660156 75.566406 Z M 0.660156 0.546875 " fill-opacity="1" fill-rule="nonzero"/></g></g></g></g></g></g><g clip-path="url(#68ec02ceaa)"><g clip-path="url(#8262f5b790)"><g transform="matrix(1, 0, 0, 1, 773, 192)"><g clip-path="url(#a31a71ac5f)"><g clip-path="url(#6aeacde525)"><g clip-path="url(#98ea946c71)"><path fill="#ffffff" d="M 0.6875 0.847656 L 108.90625 0.847656 L 108.90625 130.199219 L 0.6875 130.199219 Z M 0.6875 0.847656 " fill-opacity="1" fill-rule="nonzero"/></g></g></g></g></g></g><g clip-path="url(#4dcb7ea26f)"><g clip-path="url(#817942b853)"><g transform="matrix(1, 0, 0, 1, 857, 340)"><g clip-path="url(#ccaaff7322)"><g clip-path="url(#c18209d0da)"><g clip-path="url(#90fe110298)"><path fill="#ffffff" d="M 0.5 0.53125 L 74.789062 0.53125 L 74.789062 76.855469 L 0.5 76.855469 Z M 0.5 0.53125 " fill-opacity="1" fill-rule="nonzero"/></g></g></g></g></g></g><g clip-path="url(#0defa07068)"><g clip-path="url(#ba2624bea8)"><g transform="matrix(1, 0, 0, 1, 913, 195)"><g clip-path="url(#c3e6a39000)"><g clip-path="url(#eb0612222d)"><g clip-path="url(#0206da898f)"><path fill="#ffffff" d="M 0.699219 0.175781 L 98.132812 0.175781 L 98.132812 125.015625 L 0.699219 125.015625 Z M 0.699219 0.175781 " fill-opacity="1" fill-rule="nonzero"/></g></g></g></g></g></g><g clip-path="url(#09bd2e20ed)"><g clip-path="url(#feeb098cbd)"><g transform="matrix(1, 0, 0, 1, 951, 340)"><g clip-path="url(#7cdd1cfced)"><g clip-path="url(#4424f6088e)"><g clip-path="url(#00ed4430a6)"><path fill="#ffffff" d="M 0.886719 0.136719 L 69.25 0.136719 L 69.25 78.113281 L 0.886719 78.113281 Z M 0.886719 0.136719 " fill-opacity="1" fill-rule="nonzero"/></g></g></g></g></g></g><g clip-path="url(#39fc5ab13b)"><g clip-path="url(#074866ef0a)"><g transform="matrix(1, 0, 0, 1, 1046, 340)"><g clip-path="url(#f5c05db634)"><g clip-path="url(#70282c1566)"><g clip-path="url(#521a2c01d7)"><path fill="#ffffff" d="M 0.964844 0.96875 L 62.472656 0.96875 L 62.472656 76.890625 L 0.964844 76.890625 Z M 0.964844 0.96875 " fill-opacity="1" fill-rule="nonzero"/></g></g></g></g></g></g><g clip-path="url(#6f596a8cc8)"><g clip-path="url(#4b0e0a3f56)"><g transform="matrix(1, 0, 0, 1, 1036, 195)"><g clip-path="url(#e98c6fe9cc)"><g clip-path="url(#610cc4b172)"><g clip-path="url(#63e744d9a8)"><path fill="#ffffff" d="M 0.277344 0.140625 L 99.113281 0.140625 L 99.113281 127.15625 L 0.277344 127.15625 Z M 0.277344 0.140625 " fill-opacity="1" fill-rule="nonzero"/></g></g></g></g></g></g><g clip-path="url(#5999d78c52)"><g clip-path="url(#1fe2438fa7)"><g transform="matrix(1, 0, 0, 1, 1137, 340)"><g clip-path="url(#bbccb37172)"><g clip-path="url(#eee0f86061)"><g clip-path="url(#39345580f7)"><path fill="#ffffff" d="M 0.632812 0.234375 L 79.082031 0.234375 L 79.082031 77.773438 L 0.632812 77.773438 Z M 0.632812 0.234375 " fill-opacity="1" fill-rule="nonzero"/></g></g></g></g></g></g><g clip-path="url(#b3976ce408)"><g clip-path="url(#4f68605f3f)"><g transform="matrix(1, 0, 0, 1, 1168, 195)"><g clip-path="url(#d6fe9ce2bf)"><g clip-path="url(#dcc405fa3b)"><g clip-path="url(#453b220eaa)"><path fill="#ffffff" d="M 0.640625 0.164062 L 89.171875 0.164062 L 89.171875 125.007812 L 0.640625 125.007812 Z M 0.640625 0.164062 " fill-opacity="1" fill-rule="nonzero"/></g></g></g></g></g></g><g clip-path="url(#8275ed150d)"><g clip-path="url(#417a62ce1e)"><g transform="matrix(1, 0, 0, 1, 1241, 340)"><g clip-path="url(#b63e4227ea)"><g clip-path="url(#5cef26c4f1)"><g clip-path="url(#1ce5b7259b)"><path fill="#ffffff" d="M 0.679688 0.242188 L 68.953125 0.242188 L 68.953125 77.847656 L 0.679688 77.847656 Z M 0.679688 0.242188 " fill-opacity="1" fill-rule="nonzero"/></g></g></g></g></g></g><g clip-path="url(#9fb8af22f0)"><g clip-path="url(#0259819c7d)"><g transform="matrix(1, 0, 0, 1, 234, 79)"><g clip-path="url(#bdd967ff08)"><g clip-path="url(#c44d1c6096)"><g clip-path="url(#18de13f67b)"><path fill="#ffffff" d="M 0.792969 0.59375 L 422.890625 0.59375 L 422.890625 430.867188 L 0.792969 430.867188 Z M 0.792969 0.59375 " fill-opacity="1" fill-rule="nonzero"/></g></g></g></g></g></g><g clip-path="url(#d78a0d50b9)"><g clip-path="url(#63da5fefe6)"><g transform="matrix(1, 0, 0, 1, 1277, 192)"><g clip-path="url(#8927152b7e)"><g clip-path="url(#b09ba8f6c1)"><g clip-path="url(#a54b0c74bc)"><path fill="#ffffff" d="M 0.988281 0.882812 L 122.039062 0.882812 L 122.039062 130.441406 L 0.988281 130.441406 Z M 0.988281 0.882812 " fill-opacity="1" fill-rule="nonzero"/></g></g></g></g></g></g><g clip-path="url(#9168183add)"><g clip-path="url(#a40bf02bbe)"><g transform="matrix(1, 0, 0, 1, 1331, 339)"><g clip-path="url(#2fab474589)"><g clip-path="url(#44ccc28cbe)"><g clip-path="url(#a6877f31c8)"><rect x="-1647.8" width="2073.6" fill="#ffffff" height="1166.39999" y="-517.199998" fill-opacity="1"/></g></g></g></g></g></g><g clip-path="url(#eff8dfc9d0)"><g clip-path="url(#df83ced7a2)"><g transform="matrix(1, 0, 0, 1, 1412, 401)"><g clip-path="url(#023e204165)"><g clip-path="url(#209d84f24d)"><g clip-path="url(#a5ed43d43a)"><rect x="-1728.8" width="2073.6" fill="#000000" height="1166.39999" y="-579.199998" fill-opacity="1"/></g></g></g></g></g></g><g clip-path="url(#15764c0e92)"><g clip-path="url(#875858a2ca)"><g transform="matrix(1, 0, 0, 1, 1418, 405)"><g clip-path="url(#58a4133a33)"><g clip-path="url(#a2adf39a4b)"><g clip-path="url(#786ec6e957)"><rect x="-1734.8" width="2073.6" fill="#000000" height="1166.39999" y="-583.199998" fill-opacity="1"/></g></g></g></g></g></g><g clip-path="url(#b6a411ec1d)"><g clip-path="url(#806938b188)"><g transform="matrix(1, 0, 0, 1, 156, 546)"><g clip-path="url(#e78f0fb4b5)"><g clip-path="url(#ad84fcca8d)"><g clip-path="url(#834705d635)"><rect x="-472.8" width="2073.6" fill="#ffffff" height="1166.39999" y="-724.199998" fill-opacity="1"/></g></g></g></g></g></g><g clip-path="url(#48dd40bb43)"><g clip-path="url(#a5845296a4)"><g transform="matrix(1, 0, 0, 1, 736, 586)"><g clip-path="url(#663087c14e)"><g clip-path="url(#c02b3016f8)"><g clip-path="url(#e26ce6971e)"><rect x="-1052.8" width="2073.6" fill="#000000" height="1166.39999" y="-764.199998" fill-opacity="1"/></g></g></g></g></g></g><g clip-path="url(#ba217837a2)"><g clip-path="url(#eb36959b40)"><g transform="matrix(1, 0, 0, 1, 154, 586)"><g clip-path="url(#20a8c7a860)"><g clip-path="url(#23b6f51b33)"><g clip-path="url(#f91afa3230)"><rect x="-470.8" width="2073.6" fill="#000000" height="1166.39999" y="-764.199998" fill-opacity="1"/></g></g></g></g></g></g></svg>